<svg width="162" height="24" viewBox="0 0 162 24" fill="none" xmlns="http://www.w3.org/2000/svg"><path d="M73.3607 7.34516C74.3902 7.89043 75.1994 8.70834 75.7963 9.79888C76.3932 10.8894 76.6896 12.2165 76.6896 13.7842V24.004H73.9135V14.1851C73.9135 12.4972 73.4969 11.2062 72.6636 10.3081C71.8304 9.41398 70.7047 8.96494 69.2866 8.96494C67.8685 8.96494 66.6627 9.43403 65.8015 10.3682C64.9362 11.3064 64.5075 12.6576 64.5075 14.4297L64.4915 24H61.7154L61.7314 14.1811C61.7314 12.4932 61.3148 11.2022 60.4816 10.3041C59.6483 9.40997 58.5227 8.96093 57.1046 8.96093C55.6865 8.96093 54.4807 9.43002 53.6194 10.3642C52.7541 11.3024 52.3255 12.6535 52.3255 14.4257V23.996H49.5173V6.83196H52.3255V9.26965C52.8823 8.38358 53.6274 7.706 54.5608 7.2329C55.4982 6.75979 56.5317 6.52324 57.6614 6.52324C59.0795 6.52324 60.3334 6.84399 61.427 7.48147C62.5166 8.11896 63.3298 9.05715 63.8626 10.292C64.3353 9.09724 65.1164 8.17108 66.2061 7.51355C67.2957 6.85602 68.5095 6.52725 69.8475 6.52725C71.1854 6.52725 72.3351 6.79988 73.3647 7.34516H73.3607Z" fill="white"></path><path d="M80.0145 10.6448C80.7156 9.33777 81.677 8.3234 82.8988 7.60172C84.1206 6.88004 85.4866 6.5192 86.9889 6.5192C88.4911 6.5192 89.757 6.83994 90.8466 7.47743C91.9362 8.11492 92.7494 8.91679 93.2822 9.88705V6.5192H96.1224V24H93.2822V20.572C92.7254 21.5583 91.9001 22.3802 90.7985 23.0257C89.6969 23.6752 88.419 24 86.9568 24C85.4946 24 84.0966 23.6311 82.8828 22.8894C81.669 22.1477 80.7116 21.1092 80.0145 19.7701C79.3135 18.431 78.965 16.9074 78.965 15.1994C78.965 13.4915 79.3135 11.9519 80.0145 10.6448ZM92.509 11.8957C91.9963 10.9495 91.2992 10.2238 90.4259 9.71866C89.5527 9.21348 88.5912 8.96089 87.5417 8.96089C86.4921 8.96089 85.5347 9.20947 84.6734 9.70262C83.8121 10.1958 83.1191 10.9175 82.6064 11.8637C82.0936 12.8099 81.8332 13.9245 81.8332 15.1994C81.8332 16.4744 82.0896 17.6251 82.6064 18.5793C83.1191 19.5376 83.8081 20.2673 84.6734 20.7725C85.5387 21.2776 86.4921 21.5302 87.5417 21.5302C88.5912 21.5302 89.5527 21.2776 90.4259 20.7725C91.2992 20.2673 91.9963 19.5376 92.509 18.5793C93.0218 17.6211 93.2822 16.5065 93.2822 15.2275C93.2822 13.9485 93.0258 12.8379 92.509 11.8917V11.8957Z" fill="white"></path><path d="M103.714 7.57366C104.627 7.04041 105.745 6.77178 107.063 6.77178V9.67456H106.322C103.173 9.67456 101.603 11.3825 101.603 14.8025V24.004H98.7944V6.5192H101.603V9.82691C102.095 8.86066 102.8 8.1069 103.718 7.57366H103.714Z" fill="white"></path><path d="M118.852 24L112.218 16.5266V24H109.41V2.41368H112.218V14.5861L119.289 6.52327H123.207L114.686 15.5122L122.678 24.0041H118.852V24Z" fill="white"></path><path d="M138.133 16.314H124.617C124.721 17.9819 125.29 19.285 126.327 20.2192C127.365 21.1573 128.627 21.6224 130.109 21.6224C131.323 21.6224 132.336 21.3378 133.149 20.7725C133.962 20.2071 134.531 19.4494 134.86 18.5032H137.884C137.432 20.131 136.526 21.454 135.168 22.4724C133.81 23.4908 132.124 24 130.109 24C128.506 24 127.068 23.6391 125.806 22.9175C124.541 22.1958 123.547 21.1734 122.83 19.8463C122.109 18.5192 121.748 16.9796 121.748 15.2315C121.748 13.4834 122.097 11.9479 122.798 10.6288C123.499 9.30971 124.48 8.29935 125.746 7.58568C127.012 6.87603 128.466 6.5192 130.113 6.5192C131.759 6.5192 133.137 6.86801 134.371 7.56965C135.605 8.27128 136.558 9.23353 137.223 10.4564C137.892 11.6832 138.225 13.0665 138.225 14.6101C138.225 15.1473 138.193 15.7126 138.133 16.31V16.314ZM134.615 11.2663C134.143 10.4925 133.498 9.9071 132.689 9.50616C131.875 9.10523 130.978 8.90476 129.989 8.90476C128.57 8.90476 127.361 9.35782 126.363 10.2639C125.366 11.17 124.793 12.425 124.653 14.0327H135.328C135.328 12.9622 135.092 12.0401 134.619 11.2703L134.615 11.2663Z" fill="white"></path><path d="M140.564 6.67954V2.4176H143.372V6.67954H147.783V8.99695H143.372V19.3732C143.372 20.1951 143.549 20.7764 143.897 21.1172C144.246 21.458 144.855 21.6264 145.716 21.6264H147.783V24.004H145.251C143.689 24.004 142.515 23.6431 141.734 22.9214C140.953 22.1998 140.56 21.017 140.56 19.3692V6.67954H140.564Z" fill="white"></path><path d="M152.342 23.3385C151.312 22.8974 150.499 22.28 149.906 21.4862C149.309 20.6923 148.981 19.7822 148.921 18.7518H151.821C151.901 19.5977 152.298 20.2874 153.011 20.8206C153.72 21.3579 154.649 21.6225 155.803 21.6225C156.872 21.6225 157.718 21.3859 158.335 20.9128C158.952 20.4397 159.26 19.8423 159.26 19.1206C159.26 18.3989 158.931 17.8296 158.275 17.4688C157.618 17.1079 156.596 16.7551 155.218 16.4023C153.964 16.0735 152.939 15.7367 152.149 15.4C151.356 15.0592 150.679 14.558 150.114 13.8884C149.55 13.2189 149.265 12.3408 149.265 11.2463C149.265 10.3802 149.522 9.5904 150.038 8.86871C150.551 8.14703 151.284 7.5777 152.23 7.15672C153.175 6.73573 154.257 6.52324 155.47 6.52324C157.341 6.52324 158.855 6.99634 160.005 7.94255C161.159 8.88876 161.776 10.1878 161.856 11.8316H159.048C158.988 10.9456 158.631 10.2359 157.982 9.70266C157.333 9.16941 156.464 8.90079 155.374 8.90079C154.365 8.90079 153.564 9.11729 152.967 9.5503C152.37 9.98331 152.073 10.5486 152.073 11.2503C152.073 11.8076 152.254 12.2646 152.614 12.6255C152.975 12.9863 153.427 13.275 153.972 13.4915C154.517 13.708 155.274 13.9486 156.239 14.2172C157.453 14.546 158.439 14.8707 159.2 15.1915C159.961 15.5122 160.614 15.9893 161.159 16.6268C161.704 17.2643 161.988 18.0982 162.008 19.1286C162.008 20.0548 161.752 20.8888 161.235 21.6305C160.722 22.3722 159.997 22.9536 159.06 23.3746C158.122 23.7955 157.049 24.008 155.835 24.008C154.541 24.008 153.375 23.7875 152.35 23.3425L152.342 23.3385Z" fill="white"></path><path d="M19.4889 13.4995H4.49866V24H0V3.428C0 2.48981 0.336499 1.68794 1.0095 1.01036C1.68249 0.336786 2.48769 0 3.42507 0H19.4889V4.4985H4.49866V8.99699H19.4889V13.4955V13.4995Z" fill="white"></path><path d="M47.242 0V12.878L33.714 0H47.242Z" fill="#635BFF"></path><path d="M26.2829 0.0200043H24.973C24.1157 0.0600978 23.3706 0.392874 22.7417 1.02234C22.1608 1.6037 21.8323 2.28128 21.7522 3.0631V24H26.2509V7.11656L44.0733 24H47.238V19.9866L26.2829 0.0200043Z" fill="white"></path></svg>
